<svg width="1440" height="601" viewBox="0 0 1440 601" fill="none" xmlns="http://www.w3.org/2000/svg">
<g clip-path="url(#clip0_4098_2462)">
<path d="M870.674 -186.615L599 -237L-153.95 -86.6589C-219.259 -73.6186 -264.855 -14.2835 -260.642 52.1817L-222.398 655.415C-217.958 725.461 -159.851 780 -89.6647 780H1174.85C1231.27 780 1281.54 744.411 1300.29 691.206L1308.82 667.01C1320.76 633.121 1318.48 595.841 1302.5 563.658L965.547 -114.992C946.945 -152.457 911.802 -178.988 870.674 -186.615Z" fill="url(#paint0_linear_4098_2462)" stroke="url(#paint1_linear_4098_2462)" stroke-opacity="0.2"/>
<path d="M122.797 -216.076L-227 -237V656.558C-227 726.171 -173.321 784.007 -103.901 789.189L587.225 840.78C658.707 846.116 704.398 766.14 663.5 707.272L233.553 -143.312C212.207 -185.542 170.031 -213.25 122.797 -216.076Z" fill="url(#paint2_linear_4098_2462)" stroke="url(#paint3_linear_4098_2462)" stroke-opacity="0.2"/>
<path d="M125 -237L430.843 -216.491C476.97 -213.397 518.182 -186.573 539.684 -145.646L851.287 447.46C867.153 477.66 870.808 512.801 861.497 545.619L822.435 683.301C806.202 740.516 753.958 780 694.485 780H125" stroke="url(#paint4_linear_4098_2462)" stroke-opacity="0.2"/>
</g>
<defs>
<linearGradient id="paint0_linear_4098_2462" x1="1083.5" y1="60.9993" x2="654.5" y2="456" gradientUnits="userSpaceOnUse">
<stop stop-color="#FF4F01" stop-opacity="0.04"/>
<stop offset="1" stop-color="white" stop-opacity="0"/>
</linearGradient>
<linearGradient id="paint1_linear_4098_2462" x1="825.28" y1="-237" x2="903.657" y2="782.333" gradientUnits="userSpaceOnUse">
<stop stop-color="#FF4F01"/>
<stop offset="1" stop-color="#FF4F01" stop-opacity="0"/>
</linearGradient>
<linearGradient id="paint2_linear_4098_2462" x1="303.5" y1="61.0003" x2="-125.5" y2="456" gradientUnits="userSpaceOnUse">
<stop stop-color="#FF4F01" stop-opacity="0.04"/>
<stop offset="1" stop-color="white" stop-opacity="0"/>
</linearGradient>
<linearGradient id="paint3_linear_4098_2462" x1="45.2799" y1="-237" x2="123.657" y2="782.333" gradientUnits="userSpaceOnUse">
<stop stop-color="#FF4F01"/>
<stop offset="1" stop-color="#FF4F01" stop-opacity="0"/>
</linearGradient>
<linearGradient id="paint4_linear_4098_2462" x1="351.28" y1="-237" x2="429.657" y2="782.333" gradientUnits="userSpaceOnUse">
<stop stop-color="#FF4F01"/>
<stop offset="1" stop-color="#FF4F01" stop-opacity="0"/>
</linearGradient>
<clipPath id="clip0_4098_2462">
<rect width="1441" height="601" fill="white"/>
</clipPath>
</defs>
</svg>
